/videos/6f31eeb3-e28d-fdff-4d21-0ab6494d84dc/hls1/main/0.ts

{"Protocol":0,"Id":"6f31eeb3e28dfdff4d210ab6494d84dc","Path":"/data/tv/The Simpsons/Season 34/The Simpsons - S34E09 - When Nelson Met Lisa HDTV-1080p.mkv","EncoderPath":null,"EncoderProtocol":null,"Type":0,"Container":"mkv,webm","Size":273690489,"Name":"The Simpsons - S34E09 - When Nelson Met Lisa HDTV-1080p","IsRemote":false,"ETag":"7e6a14f5e573d68b38a8f731a434f0bd","RunTimeTicks":12992420000,"ReadAtNativeFramerate":false,"IgnoreDts":false,"IgnoreIndex":false,"GenPtsInput":false,"SupportsTranscoding":true,"SupportsDirectStream":true,"SupportsDirectPlay":true,"IsInfiniteStream":false,"RequiresOpening":false,"OpenToken":null,"RequiresClosing":false,"LiveStreamId":null,"BufferMs":null,"RequiresLooping":false,"SupportsProbing":true,"VideoType":0,"IsoType":null,"Video3DFormat":null,"MediaStreams":[{"Codec":"hevc","CodecTag":null,"Language":null,"ColorRange":null,"ColorSpace":"bt709","ColorTransfer":"bt709","ColorPrimaries":"bt709","DvVersionMajor":null,"DvVersionMinor":null,"DvProfile":null,"DvLevel":null,"RpuPresentFlag":null,"ElPresentFlag":null,"BlPresentFlag":null,"DvBlSignalCompatibilityId":null,"Comment":null,"TimeBase":"1/1000","CodecTimeBase":null,"Title":null,"VideoRange":"SDR","VideoRangeType":"SDR","VideoDoViTitle":null,"LocalizedUndefined":null,"LocalizedDefault":null,"LocalizedForced":null,"LocalizedExternal":null,"DisplayTitle":"1080p HEVC SDR","NalLengthSize":null,"IsInterlaced":false,"IsAVC":null,"ChannelLayout":null,"BitRate":1685231,"BitDepth":10,"RefFrames":1,"PacketLength":null,"Channels":null,"SampleRate":null,"IsDefault":true,"IsForced":false,"Height":1080,"Width":1920,"AverageFrameRate":23.976025,"RealFrameRate":23.976025,"Profile":"Main 10","Type":1,"AspectRatio":"16:9","Index":0,"Score":null,"IsExternal":false,"DeliveryMethod":null,"DeliveryUrl":null,"IsExternalUrl":null,"IsTextSubtitleStream":false,"SupportsExternalStream":false,"Path":null,"PixelFormat":"yuv420p10le","Level":120,"IsAnamorphic":null},{"Codec":"aac","CodecTag":null,"Language":"eng","ColorRange":null,"ColorSpace":null,"ColorTransfer":null,"ColorPrimaries":null,"DvVersionMajor":null,"DvVersionMinor":null,"DvProfile":null,"DvLevel":null,"RpuPresentFlag":null,"ElPresentFlag":null,"BlPresentFlag":null,"DvBlSignalCompatibilityId":null,"Comment":null,"TimeBase":"1/1000","CodecTimeBase":null,"Title":null,"VideoRange":null,"VideoRangeType":null,"VideoDoViTitle":null,"LocalizedUndefined":null,"LocalizedDefault":null,"LocalizedForced":null,"LocalizedExternal":null,"DisplayTitle":"English - AAC - Stereo - Default","NalLengthSize":null,"IsInterlaced":false,"IsAVC":null,"ChannelLayout":"stereo","BitRate":192000,"BitDepth":null,"RefFrames":null,"PacketLength":null,"Channels":2,"SampleRate":48000,"IsDefault":true,"IsForced":false,"Height":null,"Width":null,"AverageFrameRate":null,"RealFrameRate":null,"Profile":"HE-AAC","Type":0,"AspectRatio":null,"Index":1,"Score":null,"IsExternal":false,"DeliveryMethod":null,"DeliveryUrl":null,"IsExternalUrl":null,"IsTextSubtitleStream":false,"SupportsExternalStream":false,"Path":null,"PixelFormat":null,"Level":0,"IsAnamorphic":null},{"Codec":"ass","CodecTag":null,"Language":"eng","ColorRange":null,"ColorSpace":null,"ColorTransfer":null,"ColorPrimaries":null,"DvVersionMajor":null,"DvVersionMinor":null,"DvProfile":null,"DvLevel":null,"RpuPresentFlag":null,"ElPresentFlag":null,"BlPresentFlag":null,"DvBlSignalCompatibilityId":null,"Comment":null,"TimeBase":"1/1000","CodecTimeBase":null,"Title":"English","VideoRange":null,"VideoRangeType":null,"VideoDoViTitle":null,"LocalizedUndefined":"Undefined","LocalizedDefault":"Default","LocalizedForced":"Forced","LocalizedExternal":"External","DisplayTitle":"English - Default - ASS","NalLengthSize":null,"IsInterlaced":false,"IsAVC":null,"ChannelLayout":null,"BitRate":null,"BitDepth":null,"RefFrames":null,"PacketLength":null,"Channels":null,"SampleRate":null,"IsDefault":true,"IsForced":false,"Height":null,"Width":null,"AverageFrameRate":null,"RealFrameRate":null,"Profile":null,"Type":2,"AspectRatio":null,"Index":2,"Score":null,"IsExternal":false,"DeliveryMethod":null,"DeliveryUrl":null,"IsExternalUrl":null,"IsTextSubtitleStream":true,"SupportsExternalStream":true,"Path":null,"PixelFormat":null,"Level":0,"IsAnamorphic":null}],"MediaAttachments":[],"Formats":[],"Bitrate":1877231,"Timestamp":null,"RequiredHttpHeaders":{},"TranscodingUrl":null,"TranscodingSubProtocol":null,"TranscodingContainer":null,"AnalyzeDurationMs":null,"DefaultAudioStreamIndex":null,"DefaultSubtitleStreamIndex":null}

/usr/lib/jellyfin-ffmpeg/ffmpeg -analyzeduration 200M -f matroska,webm -autorotate 0 -i file:"/data/tv/The Simpsons/Season 34/The Simpsons - S34E09 - When Nelson Met Lisa HDTV-1080p.mkv" -map_metadata -1 -map_chapters -1 -threads 0 -map 0:0 -map 0:1 -map -0:s -codec:v:0 libx264 -preset veryfast -crf 23 -maxrate 4213078 -bufsize 8426156 -x264opts:0 subme=0:me_range=4:rc_lookahead=10:me=dia:no_chroma_me:8x8dct=0:partitions=none -force_key_frames:0 "expr:gte(t,0+n_forced*3)" -sc_threshold:v:0 0 -vf "setparams=color_primaries=bt709:color_trc=bt709:colorspace=bt709,scale=trunc(min(max(iw\,ih*a)\,min(1920\,1080*a))/2)*2:trunc(min(max(iw/a\,ih)\,min(1920/a\,1080))/2)*2,format=yuv420p" -codec:a:0 copy -copyts -avoid_negative_ts disabled -max_muxing_queue_size 2048 -f hls -max_delay 5000000 -hls_time 3 -hls_segment_type mpegts -start_number 0 -hls_segment_filename "/config/data/transcodes/62815e709881c877dffe24836edafebd%d.ts" -hls_playlist_type vod -hls_list_size 0 -y "/config/data/transcodes/62815e709881c877dffe24836edafebd.m3u8"


ffmpeg version 5.1.3-Jellyfin Copyright (c) 2000-2022 the FFmpeg developers
  built with gcc 11 (Ubuntu 11.3.0-1ubuntu1~22.04.1)
  configuration: --prefix=/usr/lib/jellyfin-ffmpeg --target-os=linux --extra-libs=-lfftw3f --extra-version=Jellyfin --disable-doc --disable-ffplay --disable-ptx-compression --disable-static --disable-libxcb --disable-sdl2 --disable-xlib --enable-lto --enable-gpl --enable-version3 --enable-shared --enable-gmp --enable-gnutls --enable-chromaprint --enable-libdrm --enable-libass --enable-libfreetype --enable-libfribidi --enable-libfontconfig --enable-libbluray --enable-libmp3lame --enable-libopus --enable-libtheora --enable-libvorbis --enable-libopenmpt --enable-libdav1d --enable-libwebp --enable-libvpx --enable-libx264 --enable-libx265 --enable-libzvbi --enable-libzimg --enable-libfdk-aac --arch=amd64 --enable-libsvtav1 --enable-libshaderc --enable-libplacebo --enable-vulkan --enable-opencl --enable-vaapi --enable-amf --enable-libmfx --enable-ffnvcodec --enable-cuda --enable-cuda-llvm --enable-cuvid --enable-nvdec --enable-nvenc
  libavutil      57. 28.100 / 57. 28.100
  libavcodec     59. 37.100 / 59. 37.100
  libavformat    59. 27.100 / 59. 27.100
  libavdevice    59.  7.100 / 59.  7.100
  libavfilter     8. 44.100 /  8. 44.100
  libswscale      6.  7.100 /  6.  7.100
  libswresample   4.  7.100 /  4.  7.100
  libpostproc    56.  6.100 / 56.  6.100
Input #0, matroska,webm, from 'file:/data/tv/The Simpsons/Season 34/The Simpsons - S34E09 - When Nelson Met Lisa HDTV-1080p.mkv':
  Metadata:
    ENCODER         : Lavf58.76.100
  Duration: 00:21:39.24, start: 0.000000, bitrate: 1685 kb/s
  Stream #0:0: Video: hevc (Main 10), yuv420p10le(tv, bt709, progressive), 1920x1080 [SAR 1:1 DAR 16:9], 23.98 fps, 23.98 tbr, 1k tbn (default)
    Metadata:
      ENCODER         : Lavc58.134.100 libx265
      DURATION        : 00:21:39.215000000
  Stream #0:1(eng): Audio: aac (HE-AAC), 48000 Hz, stereo, fltp (default)
    Metadata:
      DURATION        : 00:21:39.242000000
  Stream #0:2(eng): Subtitle: ass (default)
    Metadata:
      title           : English
      ENCODER         : Lavc58.134.100 ssa
      DURATION        : 00:21:29.453000000
Stream mapping:
  Stream #0:0 -> #0:0 (hevc (native) -> h264 (libx264))
  Stream #0:1 -> #0:1 (copy)
Press [q] to stop, [?] for help
[libx264 @ 0x563eceec4280] using SAR=1/1
[libx264 @ 0x563eceec4280] using cpu capabilities: MMX2 SSE2Fast LZCNT SSSE3 SSE4.2
[libx264 @ 0x563eceec4280] profile Main, level 4.0, 4:2:0, 8-bit
[libx264 @ 0x563eceec4280] 264 - core 163 r3060 5db6aa6 - H.264/MPEG-4 AVC codec - Copyleft 2003-2021 - http://www.videolan.org/x264.html - options: cabac=1 ref=1 deblock=1:0:0 analyse=0x1:0 me=dia subme=0 psy=1 psy_rd=1.00:0.00 mixed_ref=0 me_range=4 chroma_me=0 trellis=0 8x8dct=0 cqm=0 deadzone=21,11 fast_pskip=1 chroma_qp_offset=0 threads=15 lookahead_threads=2 sliced_threads=0 nr=0 decimate=1 interlaced=0 bluray_compat=0 constrained_intra=0 bframes=3 b_pyramid=2 b_adapt=1 b_bias=0 direct=1 weightb=1 open_gop=0 weightp=1 keyint=250 keyint_min=23 scenecut=0 intra_refresh=0 rc_lookahead=10 rc=crf mbtree=1 crf=23.0 qcomp=0.60 qpmin=0 qpmax=69 qpstep=4 vbv_maxrate=4213 vbv_bufsize=8426 crf_max=0.0 nal_hrd=none filler=0 ip_ratio=1.40 aq=1:1.00
Output #0, hls, to '/config/data/transcodes/62815e709881c877dffe24836edafebd.m3u8':
  Metadata:
    encoder         : Lavf59.27.100
  Stream #0:0: Video: h264, yuv420p(tv, bt709, progressive), 1920x1080 [SAR 1:1 DAR 16:9], q=2-31, 23.98 fps, 90k tbn (default)
    Metadata:
      encoder         : Lavc59.37.100 libx264
    Side data:
      cpb: bitrate max/min/avg: 4213000/0/0 buffer size: 8426000 vbv_delay: N/A
  Stream #0:1: Audio: aac (HE-AAC), 48000 Hz, stereo, fltp (default)
frame=    1 fps=0.0 q=0.0 size=N/A time=00:00:00.00 bitrate=N/A speed=   0x    
frame=   86 fps=0.0 q=28.0 size=N/A time=00:00:03.58 bitrate=N/A speed=6.55x    
[hls @ 0x563eceebcbc0] Opening '/config/data/transcodes/62815e709881c877dffe24836edafebd0.ts' for writing
[hls @ 0x563eceebcbc0] Opening '/config/data/transcodes/62815e709881c877dffe24836edafebd1.ts' for writing
frame=  190 fps=181 q=28.0 size=N/A time=00:00:07.93 bitrate=N/A speed=7.55x    
[hls @ 0x563eceebcbc0] Opening '/config/data/transcodes/62815e709881c877dffe24836edafebd2.ts' for writing
[hls @ 0x563eceebcbc0] Opening '/config/data/transcodes/62815e709881c877dffe24836edafebd3.ts' for writing
frame=  333 fps=215 q=28.0 size=N/A time=00:00:13.91 bitrate=N/A speed=8.96x    
[hls @ 0x563eceebcbc0] Opening '/config/data/transcodes/62815e709881c877dffe24836edafebd4.ts' for writing
[hls @ 0x563eceebcbc0] Opening '/config/data/transcodes/62815e709881c877dffe24836edafebd5.ts' for writing
frame=  473 fps=230 q=28.0 size=N/A time=00:00:19.75 bitrate=N/A speed=9.62x    
[hls @ 0x563eceebcbc0] Opening '/config/data/transcodes/62815e709881c877dffe24836edafebd6.ts' for writing
[hls @ 0x563eceebcbc0] Opening '/config/data/transcodes/62815e709881c877dffe24836edafebd7.ts' for writing
frame=  614 fps=240 q=28.0 size=N/A time=00:00:25.60 bitrate=N/A speed=  10x    
[hls @ 0x563eceebcbc0] Opening '/config/data/transcodes/62815e709881c877dffe24836edafebd8.ts' for writing
frame=  727 fps=238 q=28.0 size=N/A time=00:00:30.33 bitrate=N/A speed=9.92x    
[hls @ 0x563eceebcbc0] Opening '/config/data/transcodes/62815e709881c877dffe24836edafebd9.ts' for writing
[hls @ 0x563eceebcbc0] Opening '/config/data/transcodes/62815e709881c877dffe24836edafebd10.ts' for writing
frame=  855 fps=240 q=28.0 size=N/A time=00:00:35.67 bitrate=N/A speed=  10x    
[hls @ 0x563eceebcbc0] Opening '/config/data/transcodes/62815e709881c877dffe24836edafebd11.ts' for writing
[hls @ 0x563eceebcbc0] Opening '/config/data/transcodes/62815e709881c877dffe24836edafebd12.ts' for writing
frame=  966 fps=238 q=28.0 size=N/A time=00:00:40.32 bitrate=N/A speed=9.93x    
[hls @ 0x563eceebcbc0] Opening '/config/data/transcodes/62815e709881c877dffe24836edafebd13.ts' for writing
[hls @ 0x563eceebcbc0] Opening '/config/data/transcodes/62815e709881c877dffe24836edafebd14.ts' for writing
frame= 1110 fps=243 q=28.0 size=N/A time=00:00:46.29 bitrate=N/A speed=10.1x    
[hls @ 0x563eceebcbc0] Opening '/config/data/transcodes/62815e709881c877dffe24836edafebd15.ts' for writing
frame= 1252 fps=247 q=28.0 size=N/A time=00:00:52.22 bitrate=N/A speed=10.3x    
[hls @ 0x563eceebcbc0] Opening '/config/data/transcodes/62815e709881c877dffe24836edafebd16.ts' for writing
[hls @ 0x563eceebcbc0] Opening '/config/data/transcodes/62815e709881c877dffe24836edafebd17.ts' for writing
frame= 1386 fps=249 q=28.0 size=N/A time=00:00:57.81 bitrate=N/A speed=10.4x    
[hls @ 0x563eceebcbc0] Opening '/config/data/transcodes/62815e709881c877dffe24836edafebd18.ts' for writing
[hls @ 0x563eceebcbc0] Opening '/config/data/transcodes/62815e709881c877dffe24836edafebd19.ts' for writing
frame= 1518 fps=250 q=28.0 size=N/A time=00:01:03.31 bitrate=N/A speed=10.4x    
[hls @ 0x563eceebcbc0] Opening '/config/data/transcodes/62815e709881c877dffe24836edafebd20.ts' for writing
[hls @ 0x563eceebcbc0] Opening '/config/data/transcodes/62815e709881c877dffe24836edafebd21.ts' for writing
frame= 1652 fps=251 q=28.0 size=N/A time=00:01:08.90 bitrate=N/A speed=10.5x    
[hls @ 0x563eceebcbc0] Opening '/config/data/transcodes/62815e709881c877dffe24836edafebd22.ts' for writing
[hls @ 0x563eceebcbc0] Opening '/config/data/transcodes/62815e709881c877dffe24836edafebd23.ts' for writing
frame= 1787 fps=253 q=28.0 size=N/A time=00:01:14.53 bitrate=N/A speed=10.5x    
[hls @ 0x563eceebcbc0] Opening '/config/data/transcodes/62815e709881c877dffe24836edafebd24.ts' for writing
[hls @ 0x563eceebcbc0] Opening '/config/data/transcodes/62815e709881c877dffe24836edafebd25.ts' for writing
frame= 1931 fps=255 q=28.0 size=N/A time=00:01:20.55 bitrate=N/A speed=10.6x    
[hls @ 0x563eceebcbc0] Opening '/config/data/transcodes/62815e709881c877dffe24836edafebd26.ts' for writing
[hls @ 0x563eceebcbc0] Opening '/config/data/transcodes/62815e709881c877dffe24836edafebd27.ts' for writing
frame= 2081 fps=258 q=28.0 size=N/A time=00:01:26.82 bitrate=N/A speed=10.8x    
[hls @ 0x563eceebcbc0] Opening '/config/data/transcodes/62815e709881c877dffe24836edafebd28.ts' for writing
[hls @ 0x563eceebcbc0] Opening '/config/data/transcodes/62815e709881c877dffe24836edafebd29.ts' for writing
frame= 2225 fps=259 q=28.0 size=N/A time=00:01:32.80 bitrate=N/A speed=10.8x    
[hls @ 0x563eceebcbc0] Opening '/config/data/transcodes/62815e709881c877dffe24836edafebd30.ts' for writing
[hls @ 0x563eceebcbc0] Opening '/config/data/transcodes/62815e709881c877dffe24836edafebd31.ts' for writing
frame= 2368 fps=261 q=28.0 size=N/A time=00:01:38.77 bitrate=N/A speed=10.9x    
[hls @ 0x563eceebcbc0] Opening '/config/data/transcodes/62815e709881c877dffe24836edafebd32.ts' for writing
[hls @ 0x563eceebcbc0] Opening '/config/data/transcodes/62815e709881c877dffe24836edafebd33.ts' for writing
frame= 2514 fps=262 q=28.0 size=N/A time=00:01:44.87 bitrate=N/A speed=10.9x    
[hls @ 0x563eceebcbc0] Opening '/config/data/transcodes/62815e709881c877dffe24836edafebd34.ts' for writing
[hls @ 0x563eceebcbc0] Opening '/config/data/transcodes/62815e709881c877dffe24836edafebd35.ts' for writing
frame= 2656 fps=263 q=28.0 size=N/A time=00:01:50.80 bitrate=N/A speed=  11x    
[hls @ 0x563eceebcbc0] Opening '/config/data/transcodes/62815e709881c877dffe24836edafebd36.ts' for writing
[hls @ 0x563eceebcbc0] Opening '/config/data/transcodes/62815e709881c877dffe24836edafebd37.ts' for writing
frame= 2800 fps=265 q=28.0 size=N/A time=00:01:56.77 bitrate=N/A speed=  11x    
[hls @ 0x563eceebcbc0] Opening '/config/data/transcodes/62815e709881c877dffe24836edafebd38.ts' for writing
[hls @ 0x563eceebcbc0] Opening '/config/data/transcodes/62815e709881c877dffe24836edafebd39.ts' for writing
frame= 2921 fps=263 q=34.0 size=N/A time=00:02:01.85 bitrate=N/A speed=  11x    
[hls @ 0x563eceebcbc0] Opening '/config/data/transcodes/62815e709881c877dffe24836edafebd40.ts' for writing
frame= 3043 fps=263 q=28.0 size=N/A time=00:02:06.93 bitrate=N/A speed=  11x    
[hls @ 0x563eceebcbc0] Opening '/config/data/transcodes/62815e709881c877dffe24836edafebd41.ts' for writing
[hls @ 0x563eceebcbc0] Opening '/config/data/transcodes/62815e709881c877dffe24836edafebd42.ts' for writing
frame= 3179 fps=263 q=28.0 size=N/A time=00:02:12.60 bitrate=N/A speed=  11x    
[hls @ 0x563eceebcbc0] Opening '/config/data/transcodes/62815e709881c877dffe24836edafebd43.ts' for writing
[hls @ 0x563eceebcbc0] Opening '/config/data/transcodes/62815e709881c877dffe24836edafebd44.ts' for writing
frame= 3309 fps=263 q=28.0 size=N/A time=00:02:18.02 bitrate=N/A speed=  11x    
[hls @ 0x563eceebcbc0] Opening '/config/data/transcodes/62815e709881c877dffe24836edafebd45.ts' for writing
[hls @ 0x563eceebcbc0] Opening '/config/data/transcodes/62815e709881c877dffe24836edafebd46.ts' for writing
frame= 3440 fps=263 q=28.0 size=N/A time=00:02:23.48 bitrate=N/A speed=  11x    
[hls @ 0x563eceebcbc0] Opening '/config/data/transcodes/62815e709881c877dffe24836edafebd47.ts' for writing
[hls @ 0x563eceebcbc0] Opening '/config/data/transcodes/62815e709881c877dffe24836edafebd48.ts' for writing
frame= 3573 fps=263 q=28.0 size=N/A time=00:02:29.03 bitrate=N/A speed=  11x    
[hls @ 0x563eceebcbc0] Opening '/config/data/transcodes/62815e709881c877dffe24836edafebd49.ts' for writing
[hls @ 0x563eceebcbc0] Opening '/config/data/transcodes/62815e709881c877dffe24836edafebd50.ts' for writing
frame= 3707 fps=263 q=28.0 size=N/A time=00:02:34.62 bitrate=N/A speed=  11x    
[hls @ 0x563eceebcbc0] Opening '/config/data/transcodes/62815e709881c877dffe24836edafebd51.ts' for writing
frame= 3825 fps=262 q=28.0 size=N/A time=00:02:39.53 bitrate=N/A speed=10.9x    
[hls @ 0x563eceebcbc0] Opening '/config/data/transcodes/62815e709881c877dffe24836edafebd52.ts' for writing
[hls @ 0x563eceebcbc0] Opening '/config/data/transcodes/62815e709881c877dffe24836edafebd53.ts' for writing
frame= 3953 fps=262 q=28.0 size=N/A time=00:02:44.82 bitrate=N/A speed=10.9x    
[hls @ 0x563eceebcbc0] Opening '/config/data/transcodes/62815e709881c877dffe24836edafebd54.ts' for writing
frame= 4043 fps=259 q=28.0 size=N/A time=00:02:48.62 bitrate=N/A speed=10.8x    
[hls @ 0x563eceebcbc0] Opening '/config/data/transcodes/62815e709881c877dffe24836edafebd55.ts' for writing
[hls @ 0x563eceebcbc0] Opening '/config/data/transcodes/62815e709881c877dffe24836edafebd56.ts' for writing
frame= 4145 fps=257 q=28.0 size=N/A time=00:02:52.88 bitrate=N/A speed=10.7x    
[hls @ 0x563eceebcbc0] Opening '/config/data/transcodes/62815e709881c877dffe24836edafebd57.ts' for writing
[hls @ 0x563eceebcbc0] Opening '/config/data/transcodes/62815e709881c877dffe24836edafebd58.ts' for writing
frame= 4279 fps=258 q=28.0 size=N/A time=00:02:58.47 bitrate=N/A speed=10.7x    
[hls @ 0x563eceebcbc0] Opening '/config/data/transcodes/62815e709881c877dffe24836edafebd59.ts' for writing
frame= 4410 fps=258 q=28.0 size=N/A time=00:03:03.93 bitrate=N/A speed=10.7x    
[hls @ 0x563eceebcbc0] Opening '/config/data/transcodes/62815e709881c877dffe24836edafebd60.ts' for writing
[hls @ 0x563eceebcbc0] Opening '/config/data/transcodes/62815e709881c877dffe24836edafebd61.ts' for writing
frame= 4521 fps=257 q=28.0 size=N/A time=00:03:08.58 bitrate=N/A speed=10.7x    
[hls @ 0x563eceebcbc0] Opening '/config/data/transcodes/62815e709881c877dffe24836edafebd62.ts' for writing
[hls @ 0x563eceebcbc0] Opening '/config/data/transcodes/62815e709881c877dffe24836edafebd63.ts' for writing
frame= 4668 fps=258 q=28.0 size=N/A time=00:03:14.68 bitrate=N/A speed=10.7x    
[hls @ 0x563eceebcbc0] Opening '/config/data/transcodes/62815e709881c877dffe24836edafebd64.ts' for writing
[hls @ 0x563eceebcbc0] Opening '/config/data/transcodes/62815e709881c877dffe24836edafebd65.ts' for writing
frame= 4812 fps=258 q=28.0 size=N/A time=00:03:20.70 bitrate=N/A speed=10.8x    
[hls @ 0x563eceebcbc0] Opening '/config/data/transcodes/62815e709881c877dffe24836edafebd66.ts' for writing
[hls @ 0x563eceebcbc0] Opening '/config/data/transcodes/62815e709881c877dffe24836edafebd67.ts' for writing
frame= 4956 fps=259 q=28.0 size=N/A time=00:03:26.72 bitrate=N/A speed=10.8x    
[hls @ 0x563eceebcbc0] Opening '/config/data/transcodes/62815e709881c877dffe24836edafebd68.ts' for writing
[hls @ 0x563eceebcbc0] Opening '/config/data/transcodes/62815e709881c877dffe24836edafebd69.ts' for writing
frame= 5108 fps=260 q=28.0 size=N/A time=00:03:33.07 bitrate=N/A speed=10.9x    
[hls @ 0x563eceebcbc0] Opening '/config/data/transcodes/62815e709881c877dffe24836edafebd70.ts' for writing
[hls @ 0x563eceebcbc0] Opening '/config/data/transcodes/62815e709881c877dffe24836edafebd71.ts' for writing
frame= 5248 fps=261 q=28.0 size=N/A time=00:03:38.88 bitrate=N/A speed=10.9x    
[hls @ 0x563eceebcbc0] Opening '/config/data/transcodes/62815e709881c877dffe24836edafebd72.ts' for writing
[hls @ 0x563eceebcbc0] Opening '/config/data/transcodes/62815e709881c877dffe24836edafebd73.ts' for writing
frame= 5398 fps=262 q=28.0 size=N/A time=00:03:45.15 bitrate=N/A speed=10.9x    
[hls @ 0x563eceebcbc0] Opening '/config/data/transcodes/62815e709881c877dffe24836edafebd74.ts' for writing
[hls @ 0x563eceebcbc0] Opening '/config/data/transcodes/62815e709881c877dffe24836edafebd75.ts' for writing
frame= 5529 fps=262 q=28.0 size=N/A time=00:03:50.61 bitrate=N/A speed=10.9x    
[hls @ 0x563eceebcbc0] Opening '/config/data/transcodes/62815e709881c877dffe24836edafebd76.ts' for writing
[hls @ 0x563eceebcbc0] Opening '/config/data/transcodes/62815e709881c877dffe24836edafebd77.ts' for writing
frame= 5675 fps=262 q=28.0 size=N/A time=00:03:56.71 bitrate=N/A speed=10.9x    
[hls @ 0x563eceebcbc0] Opening '/config/data/transcodes/62815e709881c877dffe24836edafebd78.ts' for writing
[hls @ 0x563eceebcbc0] Opening '/config/data/transcodes/62815e709881c877dffe24836edafebd79.ts' for writing
frame= 5813 fps=263 q=28.0 size=N/A time=00:04:02.47 bitrate=N/A speed=  11x    
[hls @ 0x563eceebcbc0] Opening '/config/data/transcodes/62815e709881c877dffe24836edafebd80.ts' for writing
[hls @ 0x563eceebcbc0] Opening '/config/data/transcodes/62815e709881c877dffe24836edafebd81.ts' for writing
frame= 5960 fps=263 q=28.0 size=N/A time=00:04:08.57 bitrate=N/A speed=  11x    
[hls @ 0x563eceebcbc0] Opening '/config/data/transcodes/62815e709881c877dffe24836edafebd82.ts' for writing
[hls @ 0x563eceebcbc0] Opening '/config/data/transcodes/62815e709881c877dffe24836edafebd83.ts' for writing
frame= 6104 fps=264 q=28.0 size=N/A time=00:04:14.59 bitrate=N/A speed=  11x    
[hls @ 0x563eceebcbc0] Opening '/config/data/transcodes/62815e709881c877dffe24836edafebd84.ts' for writing
[hls @ 0x563eceebcbc0] Opening '/config/data/transcodes/62815e709881c877dffe24836edafebd85.ts' for writing
frame= 6234 fps=264 q=28.0 size=N/A time=00:04:20.01 bitrate=N/A speed=  11x    
[hls @ 0x563eceebcbc0] Opening '/config/data/transcodes/62815e709881c877dffe24836edafebd86.ts' for writing
[hls @ 0x563eceebcbc0] Opening '/config/data/transcodes/62815e709881c877dffe24836edafebd87.ts' for writing
frame= 6373 fps=264 q=28.0 size=N/A time=00:04:25.81 bitrate=N/A speed=  11x    
[hls @ 0x563eceebcbc0] Opening '/config/data/transcodes/62815e709881c877dffe24836edafebd88.ts' for writing
[hls @ 0x563eceebcbc0] Opening '/config/data/transcodes/62815e709881c877dffe24836edafebd89.ts' for writing
frame= 6519 fps=265 q=28.0 size=N/A time=00:04:31.91 bitrate=N/A speed=  11x    
[hls @ 0x563eceebcbc0] Opening '/config/data/transcodes/62815e709881c877dffe24836edafebd90.ts' for writing
[hls @ 0x563eceebcbc0] Opening '/config/data/transcodes/62815e709881c877dffe24836edafebd91.ts' for writing
frame= 6670 fps=265 q=28.0 size=N/A time=00:04:38.18 bitrate=N/A speed=11.1x    
[hls @ 0x563eceebcbc0] Opening '/config/data/transcodes/62815e709881c877dffe24836edafebd92.ts' for writing
[hls @ 0x563eceebcbc0] Opening '/config/data/transcodes/62815e709881c877dffe24836edafebd93.ts' for writing
frame= 6821 fps=266 q=28.0 size=N/A time=00:04:44.50 bitrate=N/A speed=11.1x    
[hls @ 0x563eceebcbc0] Opening '/config/data/transcodes/62815e709881c877dffe24836edafebd94.ts' for writing
[hls @ 0x563eceebcbc0] Opening '/config/data/transcodes/62815e709881c877dffe24836edafebd95.ts' for writing
frame= 6938 fps=265 q=28.0 size=N/A time=00:04:49.36 bitrate=N/A speed=11.1x    
[hls @ 0x563eceebcbc0] Opening '/config/data/transcodes/62815e709881c877dffe24836edafebd96.ts' for writing
frame= 7065 fps=265 q=25.0 size=N/A time=00:04:54.69 bitrate=N/A speed=11.1x    
[hls @ 0x563eceebcbc0] Opening '/config/data/transcodes/62815e709881c877dffe24836edafebd97.ts' for writing
[hls @ 0x563eceebcbc0] Opening '/config/data/transcodes/62815e709881c877dffe24836edafebd98.ts' for writing
frame= 7210 fps=266 q=28.0 size=N/A time=00:05:00.71 bitrate=N/A speed=11.1x    
[hls @ 0x563eceebcbc0] Opening '/config/data/transcodes/62815e709881c877dffe24836edafebd99.ts' for writing
[hls @ 0x563eceebcbc0] Opening '/config/data/transcodes/62815e709881c877dffe24836edafebd100.ts' for writing
frame= 7348 fps=266 q=28.0 size=N/A time=00:05:06.47 bitrate=N/A speed=11.1x    
[hls @ 0x563eceebcbc0] Opening '/config/data/transcodes/62815e709881c877dffe24836edafebd101.ts' for writing
[hls @ 0x563eceebcbc0] Opening '/config/data/transcodes/62815e709881c877dffe24836edafebd102.ts' for writing
frame= 7469 fps=265 q=28.0 size=N/A time=00:05:11.55 bitrate=N/A speed=11.1x    
[hls @ 0x563eceebcbc0] Opening '/config/data/transcodes/62815e709881c877dffe24836edafebd103.ts' for writing
[hls @ 0x563eceebcbc0] Opening '/config/data/transcodes/62815e709881c877dffe24836edafebd104.ts' for writing
frame= 7609 fps=265 q=28.0 size=N/A time=00:05:17.35 bitrate=N/A speed=11.1x    
[hls @ 0x563eceebcbc0] Opening '/config/data/transcodes/62815e709881c877dffe24836edafebd105.ts' for writing
[hls @ 0x563eceebcbc0] Opening '/config/data/transcodes/62815e709881c877dffe24836edafebd106.ts' for writing
frame= 7763 fps=266 q=28.0 size=N/A time=00:05:23.79 bitrate=N/A speed=11.1x    
[hls @ 0x563eceebcbc0] Opening '/config/data/transcodes/62815e709881c877dffe24836edafebd107.ts' for writing
[hls @ 0x563eceebcbc0] Opening '/config/data/transcodes/62815e709881c877dffe24836edafebd108.ts' for writing
frame= 7915 fps=267 q=28.0 size=N/A time=00:05:30.15 bitrate=N/A speed=11.1x    
[hls @ 0x563eceebcbc0] Opening '/config/data/transcodes/62815e709881c877dffe24836edafebd109.ts' for writing
[hls @ 0x563eceebcbc0] Opening '/config/data/transcodes/62815e709881c877dffe24836edafebd110.ts' for writing
frame= 8067 fps=267 q=28.0 size=N/A time=00:05:36.46 bitrate=N/A speed=11.2x    
[hls @ 0x563eceebcbc0] Opening '/config/data/transcodes/62815e709881c877dffe24836edafebd111.ts' for writing
[hls @ 0x563eceebcbc0] Opening '/config/data/transcodes/62815e709881c877dffe24836edafebd112.ts' for writing
frame= 8209 fps=268 q=28.0 size=N/A time=00:05:42.40 bitrate=N/A speed=11.2x    
[hls @ 0x563eceebcbc0] Opening '/config/data/transcodes/62815e709881c877dffe24836edafebd113.ts' for writing
[hls @ 0x563eceebcbc0] Opening '/config/data/transcodes/62815e709881c877dffe24836edafebd114.ts' for writing
frame= 8355 fps=268 q=28.0 size=N/A time=00:05:48.50 bitrate=N/A speed=11.2x    
[hls @ 0x563eceebcbc0] Opening '/config/data/transcodes/62815e709881c877dffe24836edafebd115.ts' for writing
[hls @ 0x563eceebcbc0] Opening '/config/data/transcodes/62815e709881c877dffe24836edafebd116.ts' for writing
frame= 8487 fps=268 q=28.0 size=N/A time=00:05:54.00 bitrate=N/A speed=11.2x    
[hls @ 0x563eceebcbc0] Opening '/config/data/transcodes/62815e709881c877dffe24836edafebd117.ts' for writing
[hls @ 0x563eceebcbc0] Opening '/config/data/transcodes/62815e709881c877dffe24836edafebd118.ts' for writing
frame= 8618 fps=268 q=28.0 size=N/A time=00:05:59.46 bitrate=N/A speed=11.2x    
[hls @ 0x563eceebcbc0] Opening '/config/data/transcodes/62815e709881c877dffe24836edafebd119.ts' for writing
[hls @ 0x563eceebcbc0] Opening '/config/data/transcodes/62815e709881c877dffe24836edafebd120.ts' for writing
frame= 8757 fps=268 q=28.0 size=N/A time=00:06:05.27 bitrate=N/A speed=11.2x    
[hls @ 0x563eceebcbc0] Opening '/config/data/transcodes/62815e709881c877dffe24836edafebd121.ts' for writing
[hls @ 0x563eceebcbc0] Opening '/config/data/transcodes/62815e709881c877dffe24836edafebd122.ts' for writing
frame= 8909 fps=269 q=28.0 size=N/A time=00:06:11.58 bitrate=N/A speed=11.2x    
[hls @ 0x563eceebcbc0] Opening '/config/data/transcodes/62815e709881c877dffe24836edafebd123.ts' for writing
[hls @ 0x563eceebcbc0] Opening '/config/data/transcodes/62815e709881c877dffe24836edafebd124.ts' for writing
frame= 9024 fps=268 q=30.0 size=N/A time=00:06:16.40 bitrate=N/A speed=11.2x    
[hls @ 0x563eceebcbc0] Opening '/config/data/transcodes/62815e709881c877dffe24836edafebd125.ts' for writing
[hls @ 0x563eceebcbc0] Opening '/config/data/transcodes/62815e709881c877dffe24836edafebd126.ts' for writing
frame= 9168 fps=268 q=28.0 size=N/A time=00:06:22.37 bitrate=N/A speed=11.2x    
[hls @ 0x563eceebcbc0] Opening '/config/data/transcodes/62815e709881c877dffe24836edafebd127.ts' for writing
[hls @ 0x563eceebcbc0] Opening '/config/data/transcodes/62815e709881c877dffe24836edafebd128.ts' for writing
frame= 9315 fps=269 q=28.0 size=N/A time=00:06:28.52 bitrate=N/A speed=11.2x    
[hls @ 0x563eceebcbc0] Opening '/config/data/transcodes/62815e709881c877dffe24836edafebd129.ts' for writing
[hls @ 0x563eceebcbc0] Opening '/config/data/transcodes/62815e709881c877dffe24836edafebd130.ts' for writing
frame= 9455 fps=269 q=28.0 size=N/A time=00:06:34.36 bitrate=N/A speed=11.2x    
[hls @ 0x563eceebcbc0] Opening '/config/data/transcodes/62815e709881c877dffe24836edafebd131.ts' for writing
[hls @ 0x563eceebcbc0] Opening '/config/data/transcodes/62815e709881c877dffe24836edafebd132.ts' for writing
frame= 9599 fps=269 q=28.0 size=N/A time=00:06:40.38 bitrate=N/A speed=11.2x    
[hls @ 0x563eceebcbc0] Opening '/config/data/transcodes/62815e709881c877dffe24836edafebd133.ts' for writing
frame= 9718 fps=269 q=28.0 size=N/A time=00:06:45.33 bitrate=N/A speed=11.2x    
[hls @ 0x563eceebcbc0] Opening '/config/data/transcodes/62815e709881c877dffe24836edafebd134.ts' for writing
[hls @ 0x563eceebcbc0] Opening '/config/data/transcodes/62815e709881c877dffe24836edafebd135.ts' for writing
frame= 9823 fps=268 q=28.0 size=N/A time=00:06:49.72 bitrate=N/A speed=11.2x    
[hls @ 0x563eceebcbc0] Opening '/config/data/transcodes/62815e709881c877dffe24836edafebd136.ts' for writing
[hls @ 0x563eceebcbc0] Opening '/config/data/transcodes/62815e709881c877dffe24836edafebd137.ts' for writing
frame= 9967 fps=268 q=28.0 size=N/A time=00:06:55.70 bitrate=N/A speed=11.2x    
[hls @ 0x563eceebcbc0] Opening '/config/data/transcodes/62815e709881c877dffe24836edafebd138.ts' for writing
[hls @ 0x563eceebcbc0] Opening '/config/data/transcodes/62815e709881c877dffe24836edafebd139.ts' for writing
frame=10117 fps=268 q=28.0 size=N/A time=00:07:01.97 bitrate=N/A speed=11.2x    
[hls @ 0x563eceebcbc0] Opening '/config/data/transcodes/62815e709881c877dffe24836edafebd140.ts' for writing
[hls @ 0x563eceebcbc0] Opening '/config/data/transcodes/62815e709881c877dffe24836edafebd141.ts' for writing
frame=10256 fps=268 q=28.0 size=N/A time=00:07:07.77 bitrate=N/A speed=11.2x    
[hls @ 0x563eceebcbc0] Opening '/config/data/transcodes/62815e709881c877dffe24836edafebd142.ts' for writing
frame=10384 fps=268 q=28.0 size=N/A time=00:07:13.11 bitrate=N/A speed=11.2x    
[hls @ 0x563eceebcbc0] Opening '/config/data/transcodes/62815e709881c877dffe24836edafebd143.ts' for writing
[hls @ 0x563eceebcbc0] Opening '/config/data/transcodes/62815e709881c877dffe24836edafebd144.ts' for writing
frame=10493 fps=268 q=28.0 size=N/A time=00:07:17.67 bitrate=N/A speed=11.2x    
[hls @ 0x563eceebcbc0] Opening '/config/data/transcodes/62815e709881c877dffe24836edafebd145.ts' for writing
[hls @ 0x563eceebcbc0] Opening '/config/data/transcodes/62815e709881c877dffe24836edafebd146.ts' for writing
frame=10630 fps=268 q=28.0 size=N/A time=00:07:23.39 bitrate=N/A speed=11.2x    
[hls @ 0x563eceebcbc0] Opening '/config/data/transcodes/62815e709881c877dffe24836edafebd147.ts' for writing
[hls @ 0x563eceebcbc0] Opening '/config/data/transcodes/62815e709881c877dffe24836edafebd148.ts' for writing
frame=10762 fps=268 q=28.0 size=N/A time=00:07:28.89 bitrate=N/A speed=11.2x    
[hls @ 0x563eceebcbc0] Opening '/config/data/transcodes/62815e709881c877dffe24836edafebd149.ts' for writing
frame=10885 fps=267 q=28.0 size=N/A time=00:07:34.01 bitrate=N/A speed=11.2x    
[hls @ 0x563eceebcbc0] Opening '/config/data/transcodes/62815e709881c877dffe24836edafebd150.ts' for writing
[hls @ 0x563eceebcbc0] Opening '/config/data/transcodes/62815e709881c877dffe24836edafebd151.ts' for writing
frame=11025 fps=268 q=28.0 size=N/A time=00:07:39.86 bitrate=N/A speed=11.2x    
[hls @ 0x563eceebcbc0] Opening '/config/data/transcodes/62815e709881c877dffe24836edafebd152.ts' for writing
[hls @ 0x563eceebcbc0] Opening '/config/data/transcodes/62815e709881c877dffe24836edafebd153.ts' for writing
frame=11151 fps=267 q=28.0 size=N/A time=00:07:45.10 bitrate=N/A speed=11.2x    
[hls @ 0x563eceebcbc0] Opening '/config/data/transcodes/62815e709881c877dffe24836edafebd154.ts' for writing
[hls @ 0x563eceebcbc0] Opening '/config/data/transcodes/62815e709881c877dffe24836edafebd155.ts' for writing
frame=11293 fps=268 q=28.0 size=N/A time=00:07:51.04 bitrate=N/A speed=11.2x    
[hls @ 0x563eceebcbc0] Opening '/config/data/transcodes/62815e709881c877dffe24836edafebd156.ts' for writing
[hls @ 0x563eceebcbc0] Opening '/config/data/transcodes/62815e709881c877dffe24836edafebd157.ts' for writing
frame=11438 fps=268 q=28.0 size=N/A time=00:07:57.05 bitrate=N/A speed=11.2x    
[hls @ 0x563eceebcbc0] Opening '/config/data/transcodes/62815e709881c877dffe24836edafebd158.ts' for writing
[hls @ 0x563eceebcbc0] Opening '/config/data/transcodes/62815e709881c877dffe24836edafebd159.ts' for writing
frame=11558 fps=267 q=28.0 size=N/A time=00:08:02.09 bitrate=N/A speed=11.2x    
[hls @ 0x563eceebcbc0] Opening '/config/data/transcodes/62815e709881c877dffe24836edafebd160.ts' for writing
[hls @ 0x563eceebcbc0] Opening '/config/data/transcodes/62815e709881c877dffe24836edafebd161.ts' for writing
frame=11702 fps=268 q=28.0 size=N/A time=00:08:08.02 bitrate=N/A speed=11.2x    
[hls @ 0x563eceebcbc0] Opening '/config/data/transcodes/62815e709881c877dffe24836edafebd162.ts' for writing
[hls @ 0x563eceebcbc0] Opening '/config/data/transcodes/62815e709881c877dffe24836edafebd163.ts' for writing
frame=11858 fps=268 q=28.0 size=N/A time=00:08:14.59 bitrate=N/A speed=11.2x    
[hls @ 0x563eceebcbc0] Opening '/config/data/transcodes/62815e709881c877dffe24836edafebd164.ts' for writing
[hls @ 0x563eceebcbc0] Opening '/config/data/transcodes/62815e709881c877dffe24836edafebd165.ts' for writing
frame=11978 fps=268 q=29.0 size=N/A time=00:08:19.58 bitrate=N/A speed=11.2x    
[hls @ 0x563eceebcbc0] Opening '/config/data/transcodes/62815e709881c877dffe24836edafebd166.ts' for writing
[hls @ 0x563eceebcbc0] Opening '/config/data/transcodes/62815e709881c877dffe24836edafebd167.ts' for writing
frame=12124 fps=268 q=28.0 size=N/A time=00:08:25.68 bitrate=N/A speed=11.2x    
[hls @ 0x563eceebcbc0] Opening '/config/data/transcodes/62815e709881c877dffe24836edafebd168.ts' for writing
[hls @ 0x563eceebcbc0] Opening '/config/data/transcodes/62815e709881c877dffe24836edafebd169.ts' for writing
frame=12259 fps=268 q=28.0 size=N/A time=00:08:31.31 bitrate=N/A speed=11.2x    
[hls @ 0x563eceebcbc0] Opening '/config/data/transcodes/62815e709881c877dffe24836edafebd170.ts' for writing
[hls @ 0x563eceebcbc0] Opening '/config/data/transcodes/62815e709881c877dffe24836edafebd171.ts' for writing
frame=12402 fps=268 q=28.0 size=N/A time=00:08:37.29 bitrate=N/A speed=11.2x    
[hls @ 0x563eceebcbc0] Opening '/config/data/transcodes/62815e709881c877dffe24836edafebd172.ts' for writing
[hls @ 0x563eceebcbc0] Opening '/config/data/transcodes/62815e709881c877dffe24836edafebd173.ts' for writing
frame=12557 fps=269 q=28.0 size=N/A time=00:08:43.73 bitrate=N/A speed=11.2x    
[hls @ 0x563eceebcbc0] Opening '/config/data/transcodes/62815e709881c877dffe24836edafebd174.ts' for writing
[hls @ 0x563eceebcbc0] Opening '/config/data/transcodes/62815e709881c877dffe24836edafebd175.ts' for writing
frame=12697 fps=269 q=28.0 size=N/A time=00:08:49.57 bitrate=N/A speed=11.2x    
[hls @ 0x563eceebcbc0] Opening '/config/data/transcodes/62815e709881c877dffe24836edafebd176.ts' for writing
[hls @ 0x563eceebcbc0] Opening '/config/data/transcodes/62815e709881c877dffe24836edafebd177.ts' for writing
frame=12844 fps=269 q=28.0 size=N/A time=00:08:55.72 bitrate=N/A speed=11.2x    
[hls @ 0x563eceebcbc0] Opening '/config/data/transcodes/62815e709881c877dffe24836edafebd178.ts' for writing
[hls @ 0x563eceebcbc0] Opening '/config/data/transcodes/62815e709881c877dffe24836edafebd179.ts' for writing
frame=12993 fps=269 q=28.0 size=N/A time=00:09:01.91 bitrate=N/A speed=11.2x    
[hls @ 0x563eceebcbc0] Opening '/config/data/transcodes/62815e709881c877dffe24836edafebd180.ts' for writing
frame=13107 fps=269 q=25.0 size=N/A time=00:09:06.68 bitrate=N/A speed=11.2x    
[hls @ 0x563eceebcbc0] Opening '/config/data/transcodes/62815e709881c877dffe24836edafebd181.ts' for writing
[hls @ 0x563eceebcbc0] Opening '/config/data/transcodes/62815e709881c877dffe24836edafebd182.ts' for writing
frame=13227 fps=269 q=31.0 size=N/A time=00:09:11.68 bitrate=N/A speed=11.2x    
[hls @ 0x563eceebcbc0] Opening '/config/data/transcodes/62815e709881c877dffe24836edafebd183.ts' for writing
frame=13336 fps=268 q=28.0 size=N/A time=00:09:16.24 bitrate=N/A speed=11.2x    
[hls @ 0x563eceebcbc0] Opening '/config/data/transcodes/62815e709881c877dffe24836edafebd184.ts' for writing
[hls @ 0x563eceebcbc0] Opening '/config/data/transcodes/62815e709881c877dffe24836edafebd185.ts' for writing
frame=13459 fps=268 q=28.0 size=N/A time=00:09:21.36 bitrate=N/A speed=11.2x    
[hls @ 0x563eceebcbc0] Opening '/config/data/transcodes/62815e709881c877dffe24836edafebd186.ts' for writing
[hls @ 0x563eceebcbc0] Opening '/config/data/transcodes/62815e709881c877dffe24836edafebd187.ts' for writing
frame=13589 fps=268 q=28.0 size=N/A time=00:09:26.78 bitrate=N/A speed=11.2x    
[hls @ 0x563eceebcbc0] Opening '/config/data/transcodes/62815e709881c877dffe24836edafebd188.ts' for writing
[hls @ 0x563eceebcbc0] Opening '/config/data/transcodes/62815e709881c877dffe24836edafebd189.ts' for writing
frame=13729 fps=268 q=28.0 size=N/A time=00:09:32.63 bitrate=N/A speed=11.2x    
[hls @ 0x563eceebcbc0] Opening '/config/data/transcodes/62815e709881c877dffe24836edafebd190.ts' for writing
[hls @ 0x563eceebcbc0] Opening '/config/data/transcodes/62815e709881c877dffe24836edafebd191.ts' for writing
frame=13869 fps=268 q=28.0 size=N/A time=00:09:38.47 bitrate=N/A speed=11.2x    
[hls @ 0x563eceebcbc0] Opening '/config/data/transcodes/62815e709881c877dffe24836edafebd192.ts' for writing
[hls @ 0x563eceebcbc0] Opening '/config/data/transcodes/62815e709881c877dffe24836edafebd193.ts' for writing
frame=14008 fps=268 q=28.0 size=N/A time=00:09:44.27 bitrate=N/A speed=11.2x    
[hls @ 0x563eceebcbc0] Opening '/config/data/transcodes/62815e709881c877dffe24836edafebd194.ts' for writing
[hls @ 0x563eceebcbc0] Opening '/config/data/transcodes/62815e709881c877dffe24836edafebd195.ts' for writing
frame=14158 fps=268 q=28.0 size=N/A time=00:09:50.50 bitrate=N/A speed=11.2x    
[hls @ 0x563eceebcbc0] Opening '/config/data/transcodes/62815e709881c877dffe24836edafebd196.ts' for writing
[hls @ 0x563eceebcbc0] Opening '/config/data/transcodes/62815e709881c877dffe24836edafebd197.ts' for writing
frame=14294 fps=268 q=28.0 size=N/A time=00:09:56.18 bitrate=N/A speed=11.2x    
[hls @ 0x563eceebcbc0] Opening '/config/data/transcodes/62815e709881c877dffe24836edafebd198.ts' for writing
[hls @ 0x563eceebcbc0] Opening '/config/data/transcodes/62815e709881c877dffe24836edafebd199.ts' for writing
frame=14418 fps=268 q=28.0 size=N/A time=00:10:01.34 bitrate=N/A speed=11.2x    
[hls @ 0x563eceebcbc0] Opening '/config/data/transcodes/62815e709881c877dffe24836edafebd200.ts' for writing
frame=14545 fps=268 q=28.0 size=N/A time=00:10:06.67 bitrate=N/A speed=11.2x    
[hls @ 0x563eceebcbc0] Opening '/config/data/transcodes/62815e709881c877dffe24836edafebd201.ts' for writing
[hls @ 0x563eceebcbc0] Opening '/config/data/transcodes/62815e709881c877dffe24836edafebd202.ts' for writing
frame=14691 fps=268 q=28.0 size=N/A time=00:10:12.73 bitrate=N/A speed=11.2x    
[hls @ 0x563eceebcbc0] Opening '/config/data/transcodes/62815e709881c877dffe24836edafebd203.ts' for writing
[hls @ 0x563eceebcbc0] Opening '/config/data/transcodes/62815e709881c877dffe24836edafebd204.ts' for writing
frame=14811 fps=268 q=28.0 size=N/A time=00:10:17.77 bitrate=N/A speed=11.2x    
[hls @ 0x563eceebcbc0] Opening '/config/data/transcodes/62815e709881c877dffe24836edafebd205.ts' for writing
frame=14919 fps=267 q=28.0 size=N/A time=00:10:22.25 bitrate=N/A speed=11.2x    
[hls @ 0x563eceebcbc0] Opening '/config/data/transcodes/62815e709881c877dffe24836edafebd206.ts' for writing
[hls @ 0x563eceebcbc0] Opening '/config/data/transcodes/62815e709881c877dffe24836edafebd207.ts' for writing
frame=15033 fps=267 q=28.0 size=N/A time=00:10:27.03 bitrate=N/A speed=11.1x    
[hls @ 0x563eceebcbc0] Opening '/config/data/transcodes/62815e709881c877dffe24836edafebd208.ts' for writing
[hls @ 0x563eceebcbc0] Opening '/config/data/transcodes/62815e709881c877dffe24836edafebd209.ts' for writing
frame=15177 fps=267 q=28.0 size=N/A time=00:10:33.00 bitrate=N/A speed=11.1x    
[hls @ 0x563eceebcbc0] Opening '/config/data/transcodes/62815e709881c877dffe24836edafebd210.ts' for writing
[hls @ 0x563eceebcbc0] Opening '/config/data/transcodes/62815e709881c877dffe24836edafebd211.ts' for writing
frame=15318 fps=267 q=28.0 size=N/A time=00:10:38.89 bitrate=N/A speed=11.2x    
[hls @ 0x563eceebcbc0] Opening '/config/data/transcodes/62815e709881c877dffe24836edafebd212.ts' for writing
[hls @ 0x563eceebcbc0] Opening '/config/data/transcodes/62815e709881c877dffe24836edafebd213.ts' for writing
frame=15464 fps=268 q=28.0 size=N/A time=00:10:44.99 bitrate=N/A speed=11.2x    
[hls @ 0x563eceebcbc0] Opening '/config/data/transcodes/62815e709881c877dffe24836edafebd214.ts' for writing
[hls @ 0x563eceebcbc0] Opening '/config/data/transcodes/62815e709881c877dffe24836edafebd215.ts' for writing
frame=15608 fps=268 q=28.0 size=N/A time=00:10:51.00 bitrate=N/A speed=11.2x    
[hls @ 0x563eceebcbc0] Opening '/config/data/transcodes/62815e709881c877dffe24836edafebd216.ts' for writing
[hls @ 0x563eceebcbc0] Opening '/config/data/transcodes/62815e709881c877dffe24836edafebd217.ts' for writing
frame=15754 fps=268 q=28.0 size=N/A time=00:10:57.06 bitrate=N/A speed=11.2x    
[hls @ 0x563eceebcbc0] Opening '/config/data/transcodes/62815e709881c877dffe24836edafebd218.ts' for writing
[hls @ 0x563eceebcbc0] Opening '/config/data/transcodes/62815e709881c877dffe24836edafebd219.ts' for writing
frame=15879 fps=268 q=28.0 size=N/A time=00:11:02.31 bitrate=N/A speed=11.2x    
[hls @ 0x563eceebcbc0] Opening '/config/data/transcodes/62815e709881c877dffe24836edafebd220.ts' for writing
[hls @ 0x563eceebcbc0] Opening '/config/data/transcodes/62815e709881c877dffe24836edafebd221.ts' for writing
frame=16013 fps=268 q=28.0 size=N/A time=00:11:07.90 bitrate=N/A speed=11.2x    
[hls @ 0x563eceebcbc0] Opening '/config/data/transcodes/62815e709881c877dffe24836edafebd222.ts' for writing
[hls @ 0x563eceebcbc0] Opening '/config/data/transcodes/62815e709881c877dffe24836edafebd223.ts' for writing
frame=16149 fps=268 q=28.0 size=N/A time=00:11:13.57 bitrate=N/A speed=11.2x    
[hls @ 0x563eceebcbc0] Opening '/config/data/transcodes/62815e709881c877dffe24836edafebd224.ts' for writing
[hls @ 0x563eceebcbc0] Opening '/config/data/transcodes/62815e709881c877dffe24836edafebd225.ts' for writing
frame=16292 fps=268 q=28.0 size=N/A time=00:11:19.50 bitrate=N/A speed=11.2x    
[hls @ 0x563eceebcbc0] Opening '/config/data/transcodes/62815e709881c877dffe24836edafebd226.ts' for writing
frame=16387 fps=267 q=28.0 size=N/A time=00:11:23.47 bitrate=N/A speed=11.2x    
[hls @ 0x563eceebcbc0] Opening '/config/data/transcodes/62815e709881c877dffe24836edafebd227.ts' for writing
[hls @ 0x563eceebcbc0] Opening '/config/data/transcodes/62815e709881c877dffe24836edafebd228.ts' for writing
frame=16532 fps=268 q=28.0 size=N/A time=00:11:29.53 bitrate=N/A speed=11.2x    
[hls @ 0x563eceebcbc0] Opening '/config/data/transcodes/62815e709881c877dffe24836edafebd229.ts' for writing
[hls @ 0x563eceebcbc0] Opening '/config/data/transcodes/62815e709881c877dffe24836edafebd230.ts' for writing
frame=16673 fps=268 q=28.0 size=N/A time=00:11:35.42 bitrate=N/A speed=11.2x    
[hls @ 0x563eceebcbc0] Opening '/config/data/transcodes/62815e709881c877dffe24836edafebd231.ts' for writing
[hls @ 0x563eceebcbc0] Opening '/config/data/transcodes/62815e709881c877dffe24836edafebd232.ts' for writing
frame=16810 fps=268 q=28.0 size=N/A time=00:11:41.14 bitrate=N/A speed=11.2x    
[hls @ 0x563eceebcbc0] Opening '/config/data/transcodes/62815e709881c877dffe24836edafebd233.ts' for writing
[hls @ 0x563eceebcbc0] Opening '/config/data/transcodes/62815e709881c877dffe24836edafebd234.ts' for writing
frame=16945 fps=268 q=28.0 size=N/A time=00:11:46.77 bitrate=N/A speed=11.2x    
[hls @ 0x563eceebcbc0] Opening '/config/data/transcodes/62815e709881c877dffe24836edafebd235.ts' for writing
frame=17069 fps=268 q=28.0 size=N/A time=00:11:51.93 bitrate=N/A speed=11.2x    
[hls @ 0x563eceebcbc0] Opening '/config/data/transcodes/62815e709881c877dffe24836edafebd236.ts' for writing
[hls @ 0x563eceebcbc0] Opening '/config/data/transcodes/62815e709881c877dffe24836edafebd237.ts' for writing
frame=17208 fps=268 q=28.0 size=N/A time=00:11:57.73 bitrate=N/A speed=11.2x    
[hls @ 0x563eceebcbc0] Opening '/config/data/transcodes/62815e709881c877dffe24836edafebd238.ts' for writing
[hls @ 0x563eceebcbc0] Opening '/config/data/transcodes/62815e709881c877dffe24836edafebd239.ts' for writing
frame=17345 fps=268 q=28.0 size=N/A time=00:12:03.45 bitrate=N/A speed=11.2x    
[hls @ 0x563eceebcbc0] Opening '/config/data/transcodes/62815e709881c877dffe24836edafebd240.ts' for writing
[hls @ 0x563eceebcbc0] Opening '/config/data/transcodes/62815e709881c877dffe24836edafebd241.ts' for writing
frame=17489 fps=268 q=28.0 size=N/A time=00:12:09.43 bitrate=N/A speed=11.2x    
[hls @ 0x563eceebcbc0] Opening '/config/data/transcodes/62815e709881c877dffe24836edafebd242.ts' for writing
[hls @ 0x563eceebcbc0] Opening '/config/data/transcodes/62815e709881c877dffe24836edafebd243.ts' for writing
frame=17637 fps=268 q=28.0 size=N/A time=00:12:15.61 bitrate=N/A speed=11.2x    
[hls @ 0x563eceebcbc0] Opening '/config/data/transcodes/62815e709881c877dffe24836edafebd244.ts' for writing
[hls @ 0x563eceebcbc0] Opening '/config/data/transcodes/62815e709881c877dffe24836edafebd245.ts' for writing
frame=17764 fps=268 q=28.0 size=N/A time=00:12:20.90 bitrate=N/A speed=11.2x    
[hls @ 0x563eceebcbc0] Opening '/config/data/transcodes/62815e709881c877dffe24836edafebd246.ts' for writing
[hls @ 0x563eceebcbc0] Opening '/config/data/transcodes/62815e709881c877dffe24836edafebd247.ts' for writing
frame=17898 fps=268 q=28.0 size=N/A time=00:12:26.49 bitrate=N/A speed=11.2x    
[hls @ 0x563eceebcbc0] Opening '/config/data/transcodes/62815e709881c877dffe24836edafebd248.ts' for writing
[hls @ 0x563eceebcbc0] Opening '/config/data/transcodes/62815e709881c877dffe24836edafebd249.ts' for writing
frame=18034 fps=268 q=28.0 size=N/A time=00:12:32.17 bitrate=N/A speed=11.2x    
[hls @ 0x563eceebcbc0] Opening '/config/data/transcodes/62815e709881c877dffe24836edafebd250.ts' for writing
[hls @ 0x563eceebcbc0] Opening '/config/data/transcodes/62815e709881c877dffe24836edafebd251.ts' for writing
frame=18177 fps=268 q=28.0 size=N/A time=00:12:38.14 bitrate=N/A speed=11.2x    
[hls @ 0x563eceebcbc0] Opening '/config/data/transcodes/62815e709881c877dffe24836edafebd252.ts' for writing
[hls @ 0x563eceebcbc0] Opening '/config/data/transcodes/62815e709881c877dffe24836edafebd253.ts' for writing
frame=18324 fps=268 q=28.0 size=N/A time=00:12:44.28 bitrate=N/A speed=11.2x    
[hls @ 0x563eceebcbc0] Opening '/config/data/transcodes/62815e709881c877dffe24836edafebd254.ts' for writing
[hls @ 0x563eceebcbc0] Opening '/config/data/transcodes/62815e709881c877dffe24836edafebd255.ts' for writing
frame=18468 fps=268 q=28.0 size=N/A time=00:12:50.26 bitrate=N/A speed=11.2x    
[hls @ 0x563eceebcbc0] Opening '/config/data/transcodes/62815e709881c877dffe24836edafebd256.ts' for writing
[hls @ 0x563eceebcbc0] Opening '/config/data/transcodes/62815e709881c877dffe24836edafebd257.ts' for writing
frame=18606 fps=268 q=28.0 size=N/A time=00:12:56.02 bitrate=N/A speed=11.2x    
[hls @ 0x563eceebcbc0] Opening '/config/data/transcodes/62815e709881c877dffe24836edafebd258.ts' for writing
frame=18728 fps=268 q=28.0 size=N/A time=00:13:01.14 bitrate=N/A speed=11.2x    
[hls @ 0x563eceebcbc0] Opening '/config/data/transcodes/62815e709881c877dffe24836edafebd259.ts' for writing
[hls @ 0x563eceebcbc0] Opening '/config/data/transcodes/62815e709881c877dffe24836edafebd260.ts' for writing
frame=18859 fps=268 q=28.0 size=N/A time=00:13:06.60 bitrate=N/A speed=11.2x    
[hls @ 0x563eceebcbc0] Opening '/config/data/transcodes/62815e709881c877dffe24836edafebd261.ts' for writing
[hls @ 0x563eceebcbc0] Opening '/config/data/transcodes/62815e709881c877dffe24836edafebd262.ts' for writing
frame=18996 fps=268 q=28.0 size=N/A time=00:13:12.32 bitrate=N/A speed=11.2x    
[hls @ 0x563eceebcbc0] Opening '/config/data/transcodes/62815e709881c877dffe24836edafebd263.ts' for writing
[hls @ 0x563eceebcbc0] Opening '/config/data/transcodes/62815e709881c877dffe24836edafebd264.ts' for writing
frame=19125 fps=268 q=28.0 size=N/A time=00:13:17.69 bitrate=N/A speed=11.2x    
[hls @ 0x563eceebcbc0] Opening '/config/data/transcodes/62815e709881c877dffe24836edafebd265.ts' for writing
[hls @ 0x563eceebcbc0] Opening '/config/data/transcodes/62815e709881c877dffe24836edafebd266.ts' for writing
frame=19255 fps=268 q=28.0 size=N/A time=00:13:23.11 bitrate=N/A speed=11.2x    
[hls @ 0x563eceebcbc0] Opening '/config/data/transcodes/62815e709881c877dffe24836edafebd267.ts' for writing
frame=19370 fps=268 q=28.0 size=N/A time=00:13:27.89 bitrate=N/A speed=11.2x    
[hls @ 0x563eceebcbc0] Opening '/config/data/transcodes/62815e709881c877dffe24836edafebd268.ts' for writing
[hls @ 0x563eceebcbc0] Opening '/config/data/transcodes/62815e709881c877dffe24836edafebd269.ts' for writing
frame=19493 fps=268 q=28.0 size=N/A time=00:13:33.01 bitrate=N/A speed=11.2x    
[hls @ 0x563eceebcbc0] Opening '/config/data/transcodes/62815e709881c877dffe24836edafebd270.ts' for writing
[hls @ 0x563eceebcbc0] Opening '/config/data/transcodes/62815e709881c877dffe24836edafebd271.ts' for writing
frame=19603 fps=267 q=28.0 size=N/A time=00:13:37.62 bitrate=N/A speed=11.1x    
[hls @ 0x563eceebcbc0] Opening '/config/data/transcodes/62815e709881c877dffe24836edafebd272.ts' for writing
frame=19737 fps=267 q=28.0 size=N/A time=00:13:43.21 bitrate=N/A speed=11.1x    
[hls @ 0x563eceebcbc0] Opening '/config/data/transcodes/62815e709881c877dffe24836edafebd273.ts' for writing
[hls @ 0x563eceebcbc0] Opening '/config/data/transcodes/62815e709881c877dffe24836edafebd274.ts' for writing
frame=19861 fps=267 q=28.0 size=N/A time=00:13:48.37 bitrate=N/A speed=11.1x    
[hls @ 0x563eceebcbc0] Opening '/config/data/transcodes/62815e709881c877dffe24836edafebd275.ts' for writing
[hls @ 0x563eceebcbc0] Opening '/config/data/transcodes/62815e709881c877dffe24836edafebd276.ts' for writing
frame=19962 fps=267 q=28.0 size=N/A time=00:13:52.59 bitrate=N/A speed=11.1x    
[hls @ 0x563eceebcbc0] Opening '/config/data/transcodes/62815e709881c877dffe24836edafebd277.ts' for writing
frame=20090 fps=267 q=28.0 size=N/A time=00:13:57.93 bitrate=N/A speed=11.1x    
[hls @ 0x563eceebcbc0] Opening '/config/data/transcodes/62815e709881c877dffe24836edafebd278.ts' for writing
[hls @ 0x563eceebcbc0] Opening '/config/data/transcodes/62815e709881c877dffe24836edafebd279.ts' for writing
frame=20219 fps=267 q=28.0 size=N/A time=00:14:03.30 bitrate=N/A speed=11.1x    
[hls @ 0x563eceebcbc0] Opening '/config/data/transcodes/62815e709881c877dffe24836edafebd280.ts' for writing
[hls @ 0x563eceebcbc0] Opening '/config/data/transcodes/62815e709881c877dffe24836edafebd281.ts' for writing
frame=20355 fps=267 q=28.0 size=N/A time=00:14:08.98 bitrate=N/A speed=11.1x    
[hls @ 0x563eceebcbc0] Opening '/config/data/transcodes/62815e709881c877dffe24836edafebd282.ts' for writing
[hls @ 0x563eceebcbc0] Opening '/config/data/transcodes/62815e709881c877dffe24836edafebd283.ts' for writing
frame=20472 fps=266 q=28.0 size=N/A time=00:14:13.80 bitrate=N/A speed=11.1x    
[hls @ 0x563eceebcbc0] Opening '/config/data/transcodes/62815e709881c877dffe24836edafebd284.ts' for writing
frame=20601 fps=266 q=28.0 size=N/A time=00:14:19.26 bitrate=N/A speed=11.1x    
[hls @ 0x563eceebcbc0] Opening '/config/data/transcodes/62815e709881c877dffe24836edafebd285.ts' for writing
[hls @ 0x563eceebcbc0] Opening '/config/data/transcodes/62815e709881c877dffe24836edafebd286.ts' for writing
frame=20740 fps=266 q=28.0 size=N/A time=00:14:25.02 bitrate=N/A speed=11.1x    
[hls @ 0x563eceebcbc0] Opening '/config/data/transcodes/62815e709881c877dffe24836edafebd287.ts' for writing
[hls @ 0x563eceebcbc0] Opening '/config/data/transcodes/62815e709881c877dffe24836edafebd288.ts' for writing
[hls @ 0x563eceebcbc0] Opening '/config/data/transcodes/62815e709881c877dffe24836edafebd289.ts' for writing
frame=20891 fps=267 q=28.0 size=N/A time=00:14:31.33 bitrate=N/A speed=11.1x    
[hls @ 0x563eceebcbc0] Opening '/config/data/transcodes/62815e709881c877dffe24836edafebd290.ts' for writing
[hls @ 0x563eceebcbc0] Opening '/config/data/transcodes/62815e709881c877dffe24836edafebd291.ts' for writing
frame=21040 fps=267 q=28.0 size=N/A time=00:14:37.56 bitrate=N/A speed=11.1x    
[hls @ 0x563eceebcbc0] Opening '/config/data/transcodes/62815e709881c877dffe24836edafebd292.ts' for writing
[hls @ 0x563eceebcbc0] Opening '/config/data/transcodes/62815e709881c877dffe24836edafebd293.ts' for writing
frame=21191 fps=267 q=28.0 size=N/A time=00:14:43.84 bitrate=N/A speed=11.1x    
[hls @ 0x563eceebcbc0] Opening '/config/data/transcodes/62815e709881c877dffe24836edafebd294.ts' for writing
[hls @ 0x563eceebcbc0] Opening '/config/data/transcodes/62815e709881c877dffe24836edafebd295.ts' for writing
frame=21334 fps=267 q=28.0 size=N/A time=00:14:49.81 bitrate=N/A speed=11.1x    
[hls @ 0x563eceebcbc0] Opening '/config/data/transcodes/62815e709881c877dffe24836edafebd296.ts' for writing
[hls @ 0x563eceebcbc0] Opening '/config/data/transcodes/62815e709881c877dffe24836edafebd297.ts' for writing
frame=21472 fps=267 q=28.0 size=N/A time=00:14:55.57 bitrate=N/A speed=11.1x    
[hls @ 0x563eceebcbc0] Opening '/config/data/transcodes/62815e709881c877dffe24836edafebd298.ts' for writing
frame=21590 fps=267 q=28.0 size=N/A time=00:15:00.48 bitrate=N/A speed=11.1x    
[hls @ 0x563eceebcbc0] Opening '/config/data/transcodes/62815e709881c877dffe24836edafebd299.ts' for writing
[hls @ 0x563eceebcbc0] Opening '/config/data/transcodes/62815e709881c877dffe24836edafebd300.ts' for writing
frame=21704 fps=267 q=28.0 size=N/A time=00:15:05.25 bitrate=N/A speed=11.1x    
[hls @ 0x563eceebcbc0] Opening '/config/data/transcodes/62815e709881c877dffe24836edafebd301.ts' for writing
frame=21811 fps=266 q=25.0 size=N/A time=00:15:09.69 bitrate=N/A speed=11.1x    
[hls @ 0x563eceebcbc0] Opening '/config/data/transcodes/62815e709881c877dffe24836edafebd302.ts' for writing
[hls @ 0x563eceebcbc0] Opening '/config/data/transcodes/62815e709881c877dffe24836edafebd303.ts' for writing
frame=21925 fps=266 q=28.0 size=N/A time=00:15:14.47 bitrate=N/A speed=11.1x    
[hls @ 0x563eceebcbc0] Opening '/config/data/transcodes/62815e709881c877dffe24836edafebd304.ts' for writing
[hls @ 0x563eceebcbc0] Opening '/config/data/transcodes/62815e709881c877dffe24836edafebd305.ts' for writing
frame=22061 fps=266 q=28.0 size=N/A time=00:15:20.14 bitrate=N/A speed=11.1x    
[hls @ 0x563eceebcbc0] Opening '/config/data/transcodes/62815e709881c877dffe24836edafebd306.ts' for writing
frame=22183 fps=266 q=28.0 size=N/A time=00:15:25.22 bitrate=N/A speed=11.1x    
[hls @ 0x563eceebcbc0] Opening '/config/data/transcodes/62815e709881c877dffe24836edafebd307.ts' for writing
[hls @ 0x563eceebcbc0] Opening '/config/data/transcodes/62815e709881c877dffe24836edafebd308.ts' for writing
frame=22326 fps=266 q=28.0 size=N/A time=00:15:31.20 bitrate=N/A speed=11.1x    
[hls @ 0x563eceebcbc0] Opening '/config/data/transcodes/62815e709881c877dffe24836edafebd309.ts' for writing
[hls @ 0x563eceebcbc0] Opening '/config/data/transcodes/62815e709881c877dffe24836edafebd310.ts' for writing
frame=22459 fps=266 q=28.0 size=N/A time=00:15:36.74 bitrate=N/A speed=11.1x    
[hls @ 0x563eceebcbc0] Opening '/config/data/transcodes/62815e709881c877dffe24836edafebd311.ts' for writing
[hls @ 0x563eceebcbc0] Opening '/config/data/transcodes/62815e709881c877dffe24836edafebd312.ts' for writing
frame=22601 fps=266 q=28.0 size=N/A time=00:15:42.67 bitrate=N/A speed=11.1x    
[hls @ 0x563eceebcbc0] Opening '/config/data/transcodes/62815e709881c877dffe24836edafebd313.ts' for writing
[hls @ 0x563eceebcbc0] Opening '/config/data/transcodes/62815e709881c877dffe24836edafebd314.ts' for writing
frame=22719 fps=266 q=28.0 size=N/A time=00:15:47.58 bitrate=N/A speed=11.1x    
[hls @ 0x563eceebcbc0] Opening '/config/data/transcodes/62815e709881c877dffe24836edafebd315.ts' for writing
[hls @ 0x563eceebcbc0] Opening '/config/data/transcodes/62815e709881c877dffe24836edafebd316.ts' for writing
frame=22868 fps=266 q=28.0 size=N/A time=00:15:53.81 bitrate=N/A speed=11.1x    
[hls @ 0x563eceebcbc0] Opening '/config/data/transcodes/62815e709881c877dffe24836edafebd317.ts' for writing
[hls @ 0x563eceebcbc0] Opening '/config/data/transcodes/62815e709881c877dffe24836edafebd318.ts' for writing
frame=23006 fps=266 q=28.0 size=N/A time=00:15:59.57 bitrate=N/A speed=11.1x    
[hls @ 0x563eceebcbc0] Opening '/config/data/transcodes/62815e709881c877dffe24836edafebd319.ts' for writing
[hls @ 0x563eceebcbc0] Opening '/config/data/transcodes/62815e709881c877dffe24836edafebd320.ts' for writing
frame=23148 fps=266 q=28.0 size=N/A time=00:16:05.46 bitrate=N/A speed=11.1x    
[hls @ 0x563eceebcbc0] Opening '/config/data/transcodes/62815e709881c877dffe24836edafebd321.ts' for writing
[hls @ 0x563eceebcbc0] Opening '/config/data/transcodes/62815e709881c877dffe24836edafebd322.ts' for writing
frame=23287 fps=266 q=28.0 size=N/A time=00:16:11.26 bitrate=N/A speed=11.1x    
[hls @ 0x563eceebcbc0] Opening '/config/data/transcodes/62815e709881c877dffe24836edafebd323.ts' for writing
[hls @ 0x563eceebcbc0] Opening '/config/data/transcodes/62815e709881c877dffe24836edafebd324.ts' for writing
frame=23419 fps=266 q=28.0 size=N/A time=00:16:16.76 bitrate=N/A speed=11.1x    
[hls @ 0x563eceebcbc0] Opening '/config/data/transcodes/62815e709881c877dffe24836edafebd325.ts' for writing
[hls @ 0x563eceebcbc0] Opening '/config/data/transcodes/62815e709881c877dffe24836edafebd326.ts' for writing
frame=23565 fps=267 q=28.0 size=N/A time=00:16:22.86 bitrate=N/A speed=11.1x    
[hls @ 0x563eceebcbc0] Opening '/config/data/transcodes/62815e709881c877dffe24836edafebd327.ts' for writing
[hls @ 0x563eceebcbc0] Opening '/config/data/transcodes/62815e709881c877dffe24836edafebd328.ts' for writing
frame=23713 fps=267 q=28.0 size=N/A time=00:16:29.05 bitrate=N/A speed=11.1x    
[hls @ 0x563eceebcbc0] Opening '/config/data/transcodes/62815e709881c877dffe24836edafebd329.ts' for writing
[hls @ 0x563eceebcbc0] Opening '/config/data/transcodes/62815e709881c877dffe24836edafebd330.ts' for writing
frame=23850 fps=267 q=28.0 size=N/A time=00:16:34.77 bitrate=N/A speed=11.1x    
[hls @ 0x563eceebcbc0] Opening '/config/data/transcodes/62815e709881c877dffe24836edafebd331.ts' for writing
[hls @ 0x563eceebcbc0] Opening '/config/data/transcodes/62815e709881c877dffe24836edafebd332.ts' for writing
frame=24001 fps=267 q=28.0 size=N/A time=00:16:41.04 bitrate=N/A speed=11.1x    
[hls @ 0x563eceebcbc0] Opening '/config/data/transcodes/62815e709881c877dffe24836edafebd333.ts' for writing
[hls @ 0x563eceebcbc0] Opening '/config/data/transcodes/62815e709881c877dffe24836edafebd334.ts' for writing
frame=24149 fps=267 q=28.0 size=N/A time=00:16:47.23 bitrate=N/A speed=11.1x    
[hls @ 0x563eceebcbc0] Opening '/config/data/transcodes/62815e709881c877dffe24836edafebd335.ts' for writing
[hls @ 0x563eceebcbc0] Opening '/config/data/transcodes/62815e709881c877dffe24836edafebd336.ts' for writing
frame=24292 fps=267 q=28.0 size=N/A time=00:16:53.20 bitrate=N/A speed=11.1x    
[hls @ 0x563eceebcbc0] Opening '/config/data/transcodes/62815e709881c877dffe24836edafebd337.ts' for writing
[hls @ 0x563eceebcbc0] Opening '/config/data/transcodes/62815e709881c877dffe24836edafebd338.ts' for writing
frame=24439 fps=267 q=28.0 size=N/A time=00:16:59.30 bitrate=N/A speed=11.2x    
[hls @ 0x563eceebcbc0] Opening '/config/data/transcodes/62815e709881c877dffe24836edafebd339.ts' for writing
[hls @ 0x563eceebcbc0] Opening '/config/data/transcodes/62815e709881c877dffe24836edafebd340.ts' for writing
frame=24576 fps=267 q=28.0 size=N/A time=00:17:05.02 bitrate=N/A speed=11.2x    
[hls @ 0x563eceebcbc0] Opening '/config/data/transcodes/62815e709881c877dffe24836edafebd341.ts' for writing
[hls @ 0x563eceebcbc0] Opening '/config/data/transcodes/62815e709881c877dffe24836edafebd342.ts' for writing
frame=24715 fps=267 q=28.0 size=N/A time=00:17:10.82 bitrate=N/A speed=11.2x    
[hls @ 0x563eceebcbc0] Opening '/config/data/transcodes/62815e709881c877dffe24836edafebd343.ts' for writing
[hls @ 0x563eceebcbc0] Opening '/config/data/transcodes/62815e709881c877dffe24836edafebd344.ts' for writing
frame=24862 fps=268 q=28.0 size=N/A time=00:17:16.97 bitrate=N/A speed=11.2x    
[hls @ 0x563eceebcbc0] Opening '/config/data/transcodes/62815e709881c877dffe24836edafebd345.ts' for writing
[hls @ 0x563eceebcbc0] Opening '/config/data/transcodes/62815e709881c877dffe24836edafebd346.ts' for writing
frame=25017 fps=268 q=28.0 size=N/A time=00:17:23.41 bitrate=N/A speed=11.2x    
[hls @ 0x563eceebcbc0] Opening '/config/data/transcodes/62815e709881c877dffe24836edafebd347.ts' for writing
[hls @ 0x563eceebcbc0] Opening '/config/data/transcodes/62815e709881c877dffe24836edafebd348.ts' for writing
frame=25169 fps=268 q=28.0 size=N/A time=00:17:29.77 bitrate=N/A speed=11.2x    
[hls @ 0x563eceebcbc0] Opening '/config/data/transcodes/62815e709881c877dffe24836edafebd349.ts' for writing
[hls @ 0x563eceebcbc0] Opening '/config/data/transcodes/62815e709881c877dffe24836edafebd350.ts' for writing
frame=25312 fps=268 q=28.0 size=N/A time=00:17:35.74 bitrate=N/A speed=11.2x    
[hls @ 0x563eceebcbc0] Opening '/config/data/transcodes/62815e709881c877dffe24836edafebd351.ts' for writing
[hls @ 0x563eceebcbc0] Opening '/config/data/transcodes/62815e709881c877dffe24836edafebd352.ts' for writing
frame=25458 fps=268 q=28.0 size=N/A time=00:17:41.80 bitrate=N/A speed=11.2x    
[hls @ 0x563eceebcbc0] Opening '/config/data/transcodes/62815e709881c877dffe24836edafebd353.ts' for writing
[hls @ 0x563eceebcbc0] Opening '/config/data/transcodes/62815e709881c877dffe24836edafebd354.ts' for writing
frame=25609 fps=268 q=28.0 size=N/A time=00:17:48.11 bitrate=N/A speed=11.2x    
[hls @ 0x563eceebcbc0] Opening '/config/data/transcodes/62815e709881c877dffe24836edafebd355.ts' for writing
[hls @ 0x563eceebcbc0] Opening '/config/data/transcodes/62815e709881c877dffe24836edafebd356.ts' for writing
frame=25760 fps=269 q=28.0 size=N/A time=00:17:54.43 bitrate=N/A speed=11.2x    
[hls @ 0x563eceebcbc0] Opening '/config/data/transcodes/62815e709881c877dffe24836edafebd357.ts' for writing
[hls @ 0x563eceebcbc0] Opening '/config/data/transcodes/62815e709881c877dffe24836edafebd358.ts' for writing
frame=25895 fps=269 q=28.0 size=N/A time=00:18:00.06 bitrate=N/A speed=11.2x    
[hls @ 0x563eceebcbc0] Opening '/config/data/transcodes/62815e709881c877dffe24836edafebd359.ts' for writing
[hls @ 0x563eceebcbc0] Opening '/config/data/transcodes/62815e709881c877dffe24836edafebd360.ts' for writing
frame=26034 fps=269 q=28.0 size=N/A time=00:18:05.86 bitrate=N/A speed=11.2x    
[hls @ 0x563eceebcbc0] Opening '/config/data/transcodes/62815e709881c877dffe24836edafebd361.ts' for writing
[hls @ 0x563eceebcbc0] Opening '/config/data/transcodes/62815e709881c877dffe24836edafebd362.ts' for writing
frame=26160 fps=268 q=28.0 size=N/A time=00:18:11.11 bitrate=N/A speed=11.2x    
[hls @ 0x563eceebcbc0] Opening '/config/data/transcodes/62815e709881c877dffe24836edafebd363.ts' for writing
frame=26275 fps=268 q=28.0 size=N/A time=00:18:15.89 bitrate=N/A speed=11.2x    
[hls @ 0x563eceebcbc0] Opening '/config/data/transcodes/62815e709881c877dffe24836edafebd364.ts' for writing
[hls @ 0x563eceebcbc0] Opening '/config/data/transcodes/62815e709881c877dffe24836edafebd365.ts' for writing
frame=26387 fps=268 q=28.0 size=N/A time=00:18:20.58 bitrate=N/A speed=11.2x    
[hls @ 0x563eceebcbc0] Opening '/config/data/transcodes/62815e709881c877dffe24836edafebd366.ts' for writing
frame=26499 fps=268 q=28.0 size=N/A time=00:18:25.23 bitrate=N/A speed=11.2x    
[hls @ 0x563eceebcbc0] Opening '/config/data/transcodes/62815e709881c877dffe24836edafebd367.ts' for writing
[hls @ 0x563eceebcbc0] Opening '/config/data/transcodes/62815e709881c877dffe24836edafebd368.ts' for writing
frame=26607 fps=268 q=28.0 size=N/A time=00:18:29.76 bitrate=N/A speed=11.2x    
[hls @ 0x563eceebcbc0] Opening '/config/data/transcodes/62815e709881c877dffe24836edafebd369.ts' for writing
[hls @ 0x563eceebcbc0] Opening '/config/data/transcodes/62815e709881c877dffe24836edafebd370.ts' for writing
frame=26719 fps=267 q=28.0 size=N/A time=00:18:34.41 bitrate=N/A speed=11.1x    
[hls @ 0x563eceebcbc0] Opening '/config/data/transcodes/62815e709881c877dffe24836edafebd371.ts' for writing
frame=26828 fps=267 q=28.0 size=N/A time=00:18:38.97 bitrate=N/A speed=11.1x    
[hls @ 0x563eceebcbc0] Opening '/config/data/transcodes/62815e709881c877dffe24836edafebd372.ts' for writing
[hls @ 0x563eceebcbc0] Opening '/config/data/transcodes/62815e709881c877dffe24836edafebd373.ts' for writing
frame=26948 fps=267 q=28.0 size=N/A time=00:18:43.96 bitrate=N/A speed=11.1x    
[hls @ 0x563eceebcbc0] Opening '/config/data/transcodes/62815e709881c877dffe24836edafebd374.ts' for writing
frame=27067 fps=267 q=28.0 size=N/A time=00:18:48.91 bitrate=N/A speed=11.1x    
[hls @ 0x563eceebcbc0] Opening '/config/data/transcodes/62815e709881c877dffe24836edafebd375.ts' for writing
[hls @ 0x563eceebcbc0] Opening '/config/data/transcodes/62815e709881c877dffe24836edafebd376.ts' for writing
frame=27187 fps=267 q=28.0 size=N/A time=00:18:53.95 bitrate=N/A speed=11.1x    
[hls @ 0x563eceebcbc0] Opening '/config/data/transcodes/62815e709881c877dffe24836edafebd377.ts' for writing
[hls @ 0x563eceebcbc0] Opening '/config/data/transcodes/62815e709881c877dffe24836edafebd378.ts' for writing
frame=27328 fps=267 q=28.0 size=N/A time=00:18:59.79 bitrate=N/A speed=11.1x    
[hls @ 0x563eceebcbc0] Opening '/config/data/transcodes/62815e709881c877dffe24836edafebd379.ts' for writing
[hls @ 0x563eceebcbc0] Opening '/config/data/transcodes/62815e709881c877dffe24836edafebd380.ts' for writing
frame=27475 fps=267 q=28.0 size=N/A time=00:19:05.94 bitrate=N/A speed=11.1x    
[hls @ 0x563eceebcbc0] Opening '/config/data/transcodes/62815e709881c877dffe24836edafebd381.ts' for writing
[hls @ 0x563eceebcbc0] Opening '/config/data/transcodes/62815e709881c877dffe24836edafebd382.ts' for writing
frame=27604 fps=267 q=28.0 size=N/A time=00:19:11.31 bitrate=N/A speed=11.1x    
[hls @ 0x563eceebcbc0] Opening '/config/data/transcodes/62815e709881c877dffe24836edafebd383.ts' for writing
[hls @ 0x563eceebcbc0] Opening '/config/data/transcodes/62815e709881c877dffe24836edafebd384.ts' for writing
frame=27753 fps=267 q=28.0 size=N/A time=00:19:17.54 bitrate=N/A speed=11.1x    
[hls @ 0x563eceebcbc0] Opening '/config/data/transcodes/62815e709881c877dffe24836edafebd385.ts' for writing
[hls @ 0x563eceebcbc0] Opening '/config/data/transcodes/62815e709881c877dffe24836edafebd386.ts' for writing
frame=27900 fps=267 q=28.0 size=N/A time=00:19:23.69 bitrate=N/A speed=11.1x    
[hls @ 0x563eceebcbc0] Opening '/config/data/transcodes/62815e709881c877dffe24836edafebd387.ts' for writing
[hls @ 0x563eceebcbc0] Opening '/config/data/transcodes/62815e709881c877dffe24836edafebd388.ts' for writing
frame=28027 fps=267 q=28.0 size=N/A time=00:19:28.98 bitrate=N/A speed=11.1x    
[hls @ 0x563eceebcbc0] Opening '/config/data/transcodes/62815e709881c877dffe24836edafebd389.ts' for writing
[hls @ 0x563eceebcbc0] Opening '/config/data/transcodes/62815e709881c877dffe24836edafebd390.ts' for writing
frame=28164 fps=267 q=28.0 size=N/A time=00:19:34.69 bitrate=N/A speed=11.1x    
[hls @ 0x563eceebcbc0] Opening '/config/data/transcodes/62815e709881c877dffe24836edafebd391.ts' for writing
[hls @ 0x563eceebcbc0] Opening '/config/data/transcodes/62815e709881c877dffe24836edafebd392.ts' for writing
frame=28306 fps=267 q=28.0 size=N/A time=00:19:40.58 bitrate=N/A speed=11.1x    
[hls @ 0x563eceebcbc0] Opening '/config/data/transcodes/62815e709881c877dffe24836edafebd393.ts' for writing
[hls @ 0x563eceebcbc0] Opening '/config/data/transcodes/62815e709881c877dffe24836edafebd394.ts' for writing
frame=28446 fps=267 q=28.0 size=N/A time=00:19:46.43 bitrate=N/A speed=11.1x    
[hls @ 0x563eceebcbc0] Opening '/config/data/transcodes/62815e709881c877dffe24836edafebd395.ts' for writing
[hls @ 0x563eceebcbc0] Opening '/config/data/transcodes/62815e709881c877dffe24836edafebd396.ts' for writing
frame=28592 fps=267 q=28.0 size=N/A time=00:19:52.53 bitrate=N/A speed=11.1x    
[hls @ 0x563eceebcbc0] Opening '/config/data/transcodes/62815e709881c877dffe24836edafebd397.ts' for writing
[hls @ 0x563eceebcbc0] Opening '/config/data/transcodes/62815e709881c877dffe24836edafebd398.ts' for writing
frame=28739 fps=267 q=28.0 size=N/A time=00:19:58.67 bitrate=N/A speed=11.2x    
[hls @ 0x563eceebcbc0] Opening '/config/data/transcodes/62815e709881c877dffe24836edafebd399.ts' for writing
[hls @ 0x563eceebcbc0] Opening '/config/data/transcodes/62815e709881c877dffe24836edafebd400.ts' for writing
frame=28878 fps=267 q=28.0 size=N/A time=00:20:04.48 bitrate=N/A speed=11.2x    
[hls @ 0x563eceebcbc0] Opening '/config/data/transcodes/62815e709881c877dffe24836edafebd401.ts' for writing
frame=29002 fps=267 q=28.0 size=N/A time=00:20:09.64 bitrate=N/A speed=11.1x    
[hls @ 0x563eceebcbc0] Opening '/config/data/transcodes/62815e709881c877dffe24836edafebd402.ts' for writing
[hls @ 0x563eceebcbc0] Opening '/config/data/transcodes/62815e709881c877dffe24836edafebd403.ts' for writing
frame=29115 fps=267 q=28.0 size=N/A time=00:20:14.33 bitrate=N/A speed=11.1x    
[hls @ 0x563eceebcbc0] Opening '/config/data/transcodes/62815e709881c877dffe24836edafebd404.ts' for writing
[hls @ 0x563eceebcbc0] Opening '/config/data/transcodes/62815e709881c877dffe24836edafebd405.ts' for writing
frame=29257 fps=267 q=28.0 size=N/A time=00:20:20.26 bitrate=N/A speed=11.1x    
[hls @ 0x563eceebcbc0] Opening '/config/data/transcodes/62815e709881c877dffe24836edafebd406.ts' for writing
[hls @ 0x563eceebcbc0] Opening '/config/data/transcodes/62815e709881c877dffe24836edafebd407.ts' for writing
frame=29388 fps=267 q=28.0 size=N/A time=00:20:25.72 bitrate=N/A speed=11.1x    
[hls @ 0x563eceebcbc0] Opening '/config/data/transcodes/62815e709881c877dffe24836edafebd408.ts' for writing
[hls @ 0x563eceebcbc0] Opening '/config/data/transcodes/62815e709881c877dffe24836edafebd409.ts' for writing
frame=29533 fps=267 q=28.0 size=N/A time=00:20:31.78 bitrate=N/A speed=11.1x    
[hls @ 0x563eceebcbc0] Opening '/config/data/transcodes/62815e709881c877dffe24836edafebd410.ts' for writing
frame=29661 fps=267 q=28.0 size=N/A time=00:20:37.12 bitrate=N/A speed=11.1x    
[hls @ 0x563eceebcbc0] Opening '/config/data/transcodes/62815e709881c877dffe24836edafebd411.ts' for writing
[hls @ 0x563eceebcbc0] Opening '/config/data/transcodes/62815e709881c877dffe24836edafebd412.ts' for writing
frame=29806 fps=267 q=28.0 size=N/A time=00:20:43.17 bitrate=N/A speed=11.1x    
[hls @ 0x563eceebcbc0] Opening '/config/data/transcodes/62815e709881c877dffe24836edafebd413.ts' for writing
[hls @ 0x563eceebcbc0] Opening '/config/data/transcodes/62815e709881c877dffe24836edafebd414.ts' for writing
[hls @ 0x563eceebcbc0] Opening '/config/data/transcodes/62815e709881c877dffe24836edafebd415.ts' for writing
frame=29954 fps=267 q=28.0 size=N/A time=00:20:49.28 bitrate=N/A speed=11.2x    
[hls @ 0x563eceebcbc0] Opening '/config/data/transcodes/62815e709881c877dffe24836edafebd416.ts' for writing
[hls @ 0x563eceebcbc0] Opening '/config/data/transcodes/62815e709881c877dffe24836edafebd417.ts' for writing
frame=30100 fps=268 q=28.0 size=N/A time=00:20:55.42 bitrate=N/A speed=11.2x    
[hls @ 0x563eceebcbc0] Opening '/config/data/transcodes/62815e709881c877dffe24836edafebd418.ts' for writing
[hls @ 0x563eceebcbc0] Opening '/config/data/transcodes/62815e709881c877dffe24836edafebd419.ts' for writing
frame=30249 fps=268 q=28.0 size=N/A time=00:21:01.65 bitrate=N/A speed=11.2x    
[hls @ 0x563eceebcbc0] Opening '/config/data/transcodes/62815e709881c877dffe24836edafebd420.ts' for writing
[hls @ 0x563eceebcbc0] Opening '/config/data/transcodes/62815e709881c877dffe24836edafebd421.ts' for writing
frame=30393 fps=268 q=28.0 size=N/A time=00:21:07.67 bitrate=N/A speed=11.2x    
[hls @ 0x563eceebcbc0] Opening '/config/data/transcodes/62815e709881c877dffe24836edafebd422.ts' for writing
[hls @ 0x563eceebcbc0] Opening '/config/data/transcodes/62815e709881c877dffe24836edafebd423.ts' for writing
frame=30540 fps=268 q=28.0 size=N/A time=00:21:13.77 bitrate=N/A speed=11.2x    
[hls @ 0x563eceebcbc0] Opening '/config/data/transcodes/62815e709881c877dffe24836edafebd424.ts' for writing
[hls @ 0x563eceebcbc0] Opening '/config/data/transcodes/62815e709881c877dffe24836edafebd425.ts' for writing
frame=30679 fps=268 q=28.0 size=N/A time=00:21:19.57 bitrate=N/A speed=11.2x    
[hls @ 0x563eceebcbc0] Opening '/config/data/transcodes/62815e709881c877dffe24836edafebd426.ts' for writing
[hls @ 0x563eceebcbc0] Opening '/config/data/transcodes/62815e709881c877dffe24836edafebd427.ts' for writing
frame=30823 fps=268 q=28.0 size=N/A time=00:21:25.58 bitrate=N/A speed=11.2x    
[hls @ 0x563eceebcbc0] Opening '/config/data/transcodes/62815e709881c877dffe24836edafebd428.ts' for writing
[hls @ 0x563eceebcbc0] Opening '/config/data/transcodes/62815e709881c877dffe24836edafebd429.ts' for writing
frame=30965 fps=268 q=28.0 size=N/A time=00:21:31.52 bitrate=N/A speed=11.2x    
[hls @ 0x563eceebcbc0] Opening '/config/data/transcodes/62815e709881c877dffe24836edafebd430.ts' for writing
frame=31095 fps=268 q=28.0 size=N/A time=00:21:36.93 bitrate=N/A speed=11.2x    
[hls @ 0x563eceebcbc0] Opening '/config/data/transcodes/62815e709881c877dffe24836edafebd431.ts' for writing
[hls @ 0x563eceebcbc0] Opening '/config/data/transcodes/62815e709881c877dffe24836edafebd432.ts' for writing
[hls @ 0x563eceebcbc0] Opening '/config/data/transcodes/62815e709881c877dffe24836edafebd433.ts' for writing
frame=31150 fps=268 q=-1.0 Lsize=N/A time=00:21:38.81 bitrate=N/A speed=11.2x    
video:300078kB audio:20112kB subtitle:0kB other streams:0kB global headers:0kB muxing overhead: unknown
[libx264 @ 0x563eceec4280] frame I:434   Avg QP:16.05  size:127049
[libx264 @ 0x563eceec4280] frame P:10307 Avg QP:19.86  size: 19625
[libx264 @ 0x563eceec4280] frame B:20409 Avg QP:22.20  size:  2443
[libx264 @ 0x563eceec4280] consecutive B-frames:  8.7%  9.4%  7.3% 74.6%
[libx264 @ 0x563eceec4280] mb I  I16..4: 66.2%  0.0% 33.8%
[libx264 @ 0x563eceec4280] mb P  I16..4: 13.3%  0.0%  0.0%  P16..4: 14.0%  0.0%  0.0%  0.0%  0.0%    skip:72.7%
[libx264 @ 0x563eceec4280] mb B  I16..4:  0.7%  0.0%  0.0%  B16..8:  3.8%  0.0%  0.0%  direct: 2.1%  skip:93.5%  L0:43.9% L1:46.1% BI:10.0%
[libx264 @ 0x563eceec4280] coded y,uvDC,uvAC intra: 35.2% 38.8% 21.2% inter: 2.2% 4.2% 0.4%
[libx264 @ 0x563eceec4280] i16 v,h,dc,p: 58% 26% 11%  5%
[libx264 @ 0x563eceec4280] i4 v,h,dc,ddl,ddr,vr,hd,vl,hu: 26% 25% 17%  7%  4%  5%  5%  4%  6%
[libx264 @ 0x563eceec4280] i8c dc,h,v,p: 51% 24% 21%  4%
[libx264 @ 0x563eceec4280] Weighted P-Frames: Y:1.2% UV:0.8%
[libx264 @ 0x563eceec4280] kb/s:1892.09